<svg xmlns="http://www.w3.org/2000/svg" xmlns:xlink="http://www.w3.org/1999/xlink" contentStyleType="text/css" height="563px" preserveAspectRatio="none" style="width:688px;height:563px;background:#FFFFFF;" version="1.1" viewBox="0 0 688 563" width="688px" zoomAndPan="magnify"><title>RDCU pour jouer</title><defs/><g><text fill="#000000" font-family="Verdana" font-size="14" font-weight="bold" lengthAdjust="spacing" textLength="131.0859" x="280.0205" y="27.9951">RDCU pour jouer</text><rect fill="none" height="52.2656" style="stroke:#000000;stroke-width:1.5;" width="639.186" x="42.9409" y="417.0859"/><line style="stroke:#181818;stroke-width:0.5;stroke-dasharray:5.0,5.0;" x1="95.9409" x2="95.9409" y1="89.8906" y2="556.6172"/><line style="stroke:#181818;stroke-width:0.5;stroke-dasharray:5.0,5.0;" x1="239.3521" x2="239.3521" y1="89.8906" y2="556.6172"/><line style="stroke:#181818;stroke-width:0.5;stroke-dasharray:5.0,5.0;" x1="355.3989" x2="355.3989" y1="89.8906" y2="556.6172"/><line style="stroke:#181818;stroke-width:0.5;stroke-dasharray:5.0,5.0;" x1="421.3032" x2="421.3032" y1="89.8906" y2="556.6172"/><line style="stroke:#181818;stroke-width:0.5;stroke-dasharray:5.0,5.0;" x1="487.2075" x2="487.2075" y1="89.8906" y2="556.6172"/><line style="stroke:#181818;stroke-width:0.5;stroke-dasharray:5.0,5.0;" x1="559.1118" x2="559.1118" y1="89.8906" y2="556.6172"/><rect fill="#E2E2F0" height="30.2969" rx="2.5" ry="2.5" style="stroke:#181818;stroke-width:0.5;" width="86.4131" x="52.9409" y="58.5938"/><text fill="#000000" font-family="Verdana" font-size="14" lengthAdjust="spacing" textLength="72.4131" x="59.9409" y="78.5889">:JeuDeDes</text><rect fill="#E2E2F0" height="46.5938" rx="2.5" ry="2.5" style="stroke:#181818;stroke-width:0.5;" width="158.0469" x="160.3521" y="42.2969"/><text fill="#000000" font-family="Verdana" font-size="14" lengthAdjust="spacing" textLength="56.5811" x="211.085" y="62.292">joueurs:</text><text fill="#000000" font-family="Verdana" font-size="14" lengthAdjust="spacing" textLength="144.0469" x="167.3521" y="78.5889">Map&lt;String,Joueur&gt;</text><rect fill="#E2E2F0" height="30.2969" rx="2.5" ry="2.5" style="stroke:#181818;stroke-width:0.5;" width="55.9043" x="328.3989" y="58.5938"/><text fill="#000000" font-family="Verdana" font-size="14" lengthAdjust="spacing" textLength="41.9043" x="335.3989" y="78.5889">d1:De</text><rect fill="#E2E2F0" height="30.2969" rx="2.5" ry="2.5" style="stroke:#181818;stroke-width:0.5;" width="55.9043" x="394.3032" y="58.5938"/><text fill="#000000" font-family="Verdana" font-size="14" lengthAdjust="spacing" textLength="41.9043" x="401.3032" y="78.5889">d2:De</text><rect fill="#E2E2F0" height="30.2969" rx="2.5" ry="2.5" style="stroke:#181818;stroke-width:0.5;" width="55.9043" x="460.2075" y="58.5938"/><text fill="#000000" font-family="Verdana" font-size="14" lengthAdjust="spacing" textLength="41.9043" x="467.2075" y="78.5889">d3:De</text><rect fill="#E2E2F0" height="30.2969" rx="2.5" ry="2.5" style="stroke:#181818;stroke-width:0.5;" width="67.416" x="526.1118" y="58.5938"/><text fill="#000000" font-family="Verdana" font-size="14" lengthAdjust="spacing" textLength="53.416" x="533.1118" y="78.5889">j:Joueur</text><polygon fill="#181818" points="84.1475,120.0234,94.1475,124.0234,84.1475,128.0234" style="stroke:#181818;stroke-width:1.0;"/><line style="stroke:#181818;stroke-width:1.0;" x1="0" x2="90.1475" y1="124.0234" y2="124.0234"/><text fill="#000000" font-family="Verdana" font-size="13" lengthAdjust="spacing" textLength="72.1475" x="7" y="118.9575">jouer(nom)</text><path d="M101,104.8906 L101,129.8906 L229,129.8906 L229,114.8906 L219,104.8906 L101,104.8906 " fill="#FEFFDD" style="stroke:#181818;stroke-width:0.5;"/><path d="M219,104.8906 L219,114.8906 L229,114.8906 L219,104.8906 " fill="#FEFFDD" style="stroke:#181818;stroke-width:0.5;"/><text fill="#000000" font-family="Verdana" font-size="13" lengthAdjust="spacing" textLength="107.5674" x="107" y="121.9575">selon Contr&#244;leur</text><polygon fill="#181818" points="227.3755,155.1563,237.3755,159.1563,227.3755,163.1563" style="stroke:#181818;stroke-width:1.0;"/><line style="stroke:#181818;stroke-width:1.0;" x1="96.1475" x2="233.3755" y1="159.1563" y2="159.1563"/><text fill="#000000" font-family="Verdana" font-size="13" lengthAdjust="spacing" textLength="119.228" x="103.1475" y="154.0903">j = chercher(nom)</text><path d="M244,140.0234 L244,165.0234 L466,165.0234 L466,150.0234 L456,140.0234 L244,140.0234 " fill="#FEFFDD" style="stroke:#181818;stroke-width:0.5;"/><path d="M456,140.0234 L456,150.0234 L466,150.0234 L456,140.0234 " fill="#FEFFDD" style="stroke:#181818;stroke-width:0.5;"/><text fill="#000000" font-family="Verdana" font-size="13" lengthAdjust="spacing" textLength="201.0176" x="250" y="157.0903">selon Transformer ID en objets</text><polygon fill="#181818" points="344.3511,190.2891,354.3511,194.2891,344.3511,198.2891" style="stroke:#181818;stroke-width:1.0;"/><line style="stroke:#181818;stroke-width:1.0;" x1="96.1475" x2="350.3511" y1="194.2891" y2="194.2891"/><text fill="#000000" font-family="Verdana" font-size="13" lengthAdjust="spacing" textLength="58.5952" x="103.1475" y="189.2231">brasser()</text><path d="M361,175.1563 L361,200.1563 L463,200.1563 L463,185.1563 L453,175.1563 L361,175.1563 " fill="#FEFFDD" style="stroke:#181818;stroke-width:0.5;"/><path d="M453,175.1563 L453,185.1563 L463,185.1563 L453,175.1563 " fill="#FEFFDD" style="stroke:#181818;stroke-width:0.5;"/><text fill="#000000" font-family="Verdana" font-size="13" lengthAdjust="spacing" textLength="81.3071" x="367" y="192.2231">selon Expert</text><polygon fill="#181818" points="344.3511,225.4219,354.3511,229.4219,344.3511,233.4219" style="stroke:#181818;stroke-width:1.0;"/><line style="stroke:#181818;stroke-width:1.0;" x1="96.1475" x2="350.3511" y1="229.4219" y2="229.4219"/><text fill="#000000" font-family="Verdana" font-size="13" lengthAdjust="spacing" textLength="75.9751" x="103.1475" y="224.356">v1 = valeur</text><path d="M361,210.2891 L361,235.2891 L463,235.2891 L463,220.2891 L453,210.2891 L361,210.2891 " fill="#FEFFDD" style="stroke:#181818;stroke-width:0.5;"/><path d="M453,210.2891 L453,220.2891 L463,220.2891 L453,210.2891 " fill="#FEFFDD" style="stroke:#181818;stroke-width:0.5;"/><text fill="#000000" font-family="Verdana" font-size="13" lengthAdjust="spacing" textLength="81.3071" x="367" y="227.356">selon Expert</text><polygon fill="#181818" points="410.2554,260.5547,420.2554,264.5547,410.2554,268.5547" style="stroke:#181818;stroke-width:1.0;"/><line style="stroke:#181818;stroke-width:1.0;" x1="96.1475" x2="416.2554" y1="264.5547" y2="264.5547"/><text fill="#000000" font-family="Verdana" font-size="13" lengthAdjust="spacing" textLength="58.5952" x="103.1475" y="259.4888">brasser()</text><path d="M427,245.4219 L427,270.4219 L529,270.4219 L529,255.4219 L519,245.4219 L427,245.4219 " fill="#FEFFDD" style="stroke:#181818;stroke-width:0.5;"/><path d="M519,245.4219 L519,255.4219 L529,255.4219 L519,245.4219 " fill="#FEFFDD" style="stroke:#181818;stroke-width:0.5;"/><text fill="#000000" font-family="Verdana" font-size="13" lengthAdjust="spacing" textLength="81.3071" x="433" y="262.4888">selon Expert</text><polygon fill="#181818" points="410.2554,295.6875,420.2554,299.6875,410.2554,303.6875" style="stroke:#181818;stroke-width:1.0;"/><line style="stroke:#181818;stroke-width:1.0;" x1="96.1475" x2="416.2554" y1="299.6875" y2="299.6875"/><text fill="#000000" font-family="Verdana" font-size="13" lengthAdjust="spacing" textLength="75.9751" x="103.1475" y="294.6216">v2 = valeur</text><path d="M427,280.5547 L427,305.5547 L529,305.5547 L529,290.5547 L519,280.5547 L427,280.5547 " fill="#FEFFDD" style="stroke:#181818;stroke-width:0.5;"/><path d="M519,280.5547 L519,290.5547 L529,290.5547 L519,280.5547 " fill="#FEFFDD" style="stroke:#181818;stroke-width:0.5;"/><text fill="#000000" font-family="Verdana" font-size="13" lengthAdjust="spacing" textLength="81.3071" x="433" y="297.6216">selon Expert</text><polygon fill="#181818" points="476.1597,330.8203,486.1597,334.8203,476.1597,338.8203" style="stroke:#181818;stroke-width:1.0;"/><line style="stroke:#181818;stroke-width:1.0;" x1="96.1475" x2="482.1597" y1="334.8203" y2="334.8203"/><text fill="#000000" font-family="Verdana" font-size="13" lengthAdjust="spacing" textLength="58.5952" x="103.1475" y="329.7544">brasser()</text><path d="M493,315.6875 L493,340.6875 L595,340.6875 L595,325.6875 L585,315.6875 L493,315.6875 " fill="#FEFFDD" style="stroke:#181818;stroke-width:0.5;"/><path d="M585,315.6875 L585,325.6875 L595,325.6875 L585,315.6875 " fill="#FEFFDD" style="stroke:#181818;stroke-width:0.5;"/><text fill="#000000" font-family="Verdana" font-size="13" lengthAdjust="spacing" textLength="81.3071" x="499" y="332.7544">selon Expert</text><polygon fill="#181818" points="476.1597,362.9531,486.1597,366.9531,476.1597,370.9531" style="stroke:#181818;stroke-width:1.0;"/><line style="stroke:#181818;stroke-width:1.0;" x1="96.1475" x2="482.1597" y1="366.9531" y2="366.9531"/><text fill="#000000" font-family="Verdana" font-size="13" lengthAdjust="spacing" textLength="75.9751" x="103.1475" y="361.8872">v3 = valeur</text><polygon fill="#181818" points="547.8198,395.0859,557.8198,399.0859,547.8198,403.0859" style="stroke:#181818;stroke-width:1.0;"/><line style="stroke:#181818;stroke-width:1.0;" x1="96.1475" x2="553.8198" y1="399.0859" y2="399.0859"/><text fill="#000000" font-family="Verdana" font-size="13" lengthAdjust="spacing" textLength="91.749" x="103.1475" y="394.02">incNbParties()</text><path d="M564,379.9531 L564,404.9531 L666,404.9531 L666,389.9531 L656,379.9531 L564,379.9531 " fill="#FEFFDD" style="stroke:#181818;stroke-width:0.5;"/><path d="M656,379.9531 L656,389.9531 L666,389.9531 L656,379.9531 " fill="#FEFFDD" style="stroke:#181818;stroke-width:0.5;"/><text fill="#000000" font-family="Verdana" font-size="13" lengthAdjust="spacing" textLength="81.3071" x="570" y="397.02">selon Expert</text><path d="M42.9409,417.0859 L112.3921,417.0859 L112.3921,424.2188 L102.3921,434.2188 L42.9409,434.2188 L42.9409,417.0859 " fill="#EEEEEE" style="stroke:#000000;stroke-width:1.5;"/><rect fill="none" height="52.2656" style="stroke:#000000;stroke-width:1.5;" width="639.186" x="42.9409" y="417.0859"/><text fill="#000000" font-family="Verdana" font-size="13" font-weight="bold" lengthAdjust="spacing" textLength="24.4512" x="57.9409" y="430.1528">opt</text><text fill="#000000" font-family="Verdana" font-size="11" font-weight="bold" lengthAdjust="spacing" textLength="129.6797" x="127.3921" y="429.2964">[v1 + v2 + v3 &lt;= 10]</text><polygon fill="#181818" points="547.8198,454.3516,557.8198,458.3516,547.8198,462.3516" style="stroke:#181818;stroke-width:1.0;"/><line style="stroke:#181818;stroke-width:1.0;" x1="96.1475" x2="553.8198" y1="458.3516" y2="458.3516"/><text fill="#000000" font-family="Verdana" font-size="13" lengthAdjust="spacing" textLength="149.0493" x="103.1475" y="453.2856">incNbPartiesGagnees()</text><path d="M564,439.2188 L564,464.2188 L666,464.2188 L666,449.2188 L656,439.2188 L564,439.2188 " fill="#FEFFDD" style="stroke:#181818;stroke-width:0.5;"/><path d="M656,439.2188 L656,449.2188 L666,449.2188 L656,439.2188 " fill="#FEFFDD" style="stroke:#181818;stroke-width:0.5;"/><text fill="#000000" font-family="Verdana" font-size="13" lengthAdjust="spacing" textLength="81.3071" x="570" y="456.2856">selon Expert</text><polygon fill="#181818" points="547.8198,496.4844,557.8198,500.4844,547.8198,504.4844" style="stroke:#181818;stroke-width:1.0;"/><line style="stroke:#181818;stroke-width:1.0;" x1="96.1475" x2="553.8198" y1="500.4844" y2="500.4844"/><text fill="#000000" font-family="Verdana" font-size="13" lengthAdjust="spacing" textLength="88.5308" x="103.1475" y="495.4185">p = nbParties</text><path d="M564,481.3516 L564,506.3516 L666,506.3516 L666,491.3516 L656,481.3516 L564,481.3516 " fill="#FEFFDD" style="stroke:#181818;stroke-width:0.5;"/><path d="M656,481.3516 L656,491.3516 L666,491.3516 L656,481.3516 " fill="#FEFFDD" style="stroke:#181818;stroke-width:0.5;"/><text fill="#000000" font-family="Verdana" font-size="13" lengthAdjust="spacing" textLength="81.3071" x="570" y="498.4185">selon Expert</text><polygon fill="#181818" points="547.8198,531.6172,557.8198,535.6172,547.8198,539.6172" style="stroke:#181818;stroke-width:1.0;"/><line style="stroke:#181818;stroke-width:1.0;" x1="96.1475" x2="553.8198" y1="535.6172" y2="535.6172"/><text fill="#000000" font-family="Verdana" font-size="13" lengthAdjust="spacing" textLength="145.8311" x="103.1475" y="530.5513">g = nbPartiesGagnees</text><path d="M564,516.4844 L564,541.4844 L666,541.4844 L666,526.4844 L656,516.4844 L564,516.4844 " fill="#FEFFDD" style="stroke:#181818;stroke-width:0.5;"/><path d="M656,516.4844 L656,526.4844 L666,526.4844 L656,516.4844 " fill="#FEFFDD" style="stroke:#181818;stroke-width:0.5;"/><text fill="#000000" font-family="Verdana" font-size="13" lengthAdjust="spacing" textLength="81.3071" x="570" y="533.5513">selon Expert</text><!--SRC=[bP5DJiCm48NtFiMeAr2fH99Tr7RJ84Gb4E9lnSPrfgb3F8vi9u9xSGCkXftIGAkseejuuVVUzsOS-oQfveOhiEwZGdyQALoZAcPx9SSbRogtrEI8AuGND3adpfnqFl6GpPwXres1KZTecCyuAMJDoS4WdMEJOOPs0Do2s1Q3lp4sVQLRNeyVVJCL5_FkSjhvIxKToACqmqx9enqbxfLuHqbw9TcfJzTTwoescWf8rpkSaLRdZBH3CB9OENzliT84C_y4vkkpyYacHjDIXGHCGApGXEzWyCbmiajj51guoG09zA94PmCbZxnjORYr7h0tVVLUet6zjuryPSkxAOwxunF8mTl6_oKd9v23jqr-oU7b_9KaSRUu3ty4xL66hbtOUHZ66mRIU0BH9GFO0xhc1M770pXCHCh1KpUJr7ussX2EBnFinL_xJ-7Xr3S0]--></g></svg>